<svg xmlns="http://www.w3.org/2000/svg" viewBox="0 0 64 64">
  <!-- Background -->
  <rect width="64" height="64" fill="#ffffff" rx="8" ry="8"/>
  
  <!-- Letter F -->
  <text x="22" y="42" font-family="Arial" font-size="32" font-weight="bold" fill="#4f46e5">F</text>
  
  <!-- Hearts - scaled down versions of the hearts in the logo -->
  <path d="M32 14 C 34 11, 38 11, 39 14 C 40 17, 37 20, 32 22 C 27 20, 24 17, 25 14 C 26 11, 30 11, 32 14" fill="#ff6b6b" transform="scale(0.8)"/>
  <path d="M46 32 C 48 29, 52 29, 53 32 C 54 35, 51 38, 46 40 C 41 38, 38 35, 39 32 C 40 29, 44 29, 46 32" fill="#ff6b6b" transform="scale(0.8)"/>
  <path d="M32 50 C 34 47, 38 47, 39 50 C 40 53, 37 56, 32 58 C 27 56, 24 53, 25 50 C 26 47, 30 47, 32 50" fill="#ff6b6b" transform="scale(0.8)"/>
  <path d="M18 32 C 20 29, 24 29, 25 32 C 26 35, 23 38, 18 40 C 13 38, 10 35, 11 32 C 12 29, 16 29, 18 32" fill="#ff6b6b" transform="scale(0.8)"/>
</svg>