<svg xmlns="http://www.w3.org/2000/svg" viewBox="0 0 400 400">
  <!-- Background -->
  <rect width="400" height="400" fill="#ffffff" rx="20" ry="20"/>
  
  <!-- Letter F -->
  <text x="160" y="230" font-family="Arial" font-size="140" font-weight="bold" fill="#4f46e5">F</text>
  
  <!-- Hearts -->
  <!-- Top Heart -->
  <path d="M200 60 C 220 35, 260 35, 270 60 C 280 85, 250 110, 200 130 C 150 110, 120 85, 130 60 C 140 35, 180 35, 200 60" fill="#ff6b6b"/>
  
  <!-- Right Heart -->
  <path d="M310 200 C 330 175, 370 175, 380 200 C 390 225, 360 250, 310 270 C 260 250, 230 225, 240 200 C 250 175, 290 175, 310 200" fill="#ff6b6b"/>
  
  <!-- Bottom Heart -->
  <path d="M200 340 C 220 315, 260 315, 270 340 C 280 365, 250 390, 200 410 C 150 390, 120 365, 130 340 C 140 315, 180 315, 200 340" fill="#ff6b6b"/>
  
  <!-- Left Heart -->
  <path d="M90 200 C 110 175, 150 175, 160 200 C 170 225, 140 250, 90 270 C 40 250, 10 225, 20 200 C 30 175, 70 175, 90 200" fill="#ff6b6b"/>
</svg>